<svg width="1280" height="120" viewBox="0 0 1280 120" fill="none" xmlns="http://www.w3.org/2000/svg">
<g clip-path="url(#clip0_3415_15)">
<path d="M0 47.9999L26.6667 49.9999C53.3333 51.9999 106.667 55.9999 160 55.9999C213.333 55.9999 266.667 51.9999 320 55.9999C373.333 59.9999 426.667 71.9999 480 69.9999C533.333 67.9999 586.667 51.9999 640 43.9999C693.333 35.9999 746.667 35.9999 800 35.9999C853.333 35.9999 906.667 35.9999 960 39.9999C1013.33 43.9999 1066.67 51.9999 1120 59.9999C1173.33 67.9999 1226.67 75.9999 1280 83.9999C1333.33 91.9999 1386.67 99.9999 1440 89.9999C1493.33 79.9999 1546.67 51.9999 1600 33.9999C1653.33 15.9999 1706.67 7.99987 1760 19.9999C1813.33 31.9999 1866.67 63.9999 1920 67.9999C1973.33 71.9999 2026.67 47.9999 2080 45.9999C2133.33 43.9999 2186.67 63.9999 2240 61.9999C2293.33 59.9999 2346.67 35.9999 2400 25.9999C2453.33 15.9999 2506.67 19.9999 2560 27.9999C2613.33 35.9999 2666.67 47.9999 2720 55.9999C2773.33 63.9999 2826.67 67.9999 2880 75.9999C2933.33 83.9999 2986.67 95.9999 3040 85.9999C3093.33 75.9999 3146.67 43.9999 3200 35.9999C3253.33 27.9999 3306.67 43.9999 3360 45.9999C3413.33 47.9999 3466.67 35.9999 3520 27.9999C3573.33 19.9999 3626.67 15.9999 3680 29.9999C3733.33 43.9999 3786.67 75.9999 3813.33 91.9999L3840 108V120H3813.33C3786.67 120 3733.33 120 3680 120C3626.67 120 3573.33 120 3520 120C3466.67 120 3413.33 120 3360 120C3306.67 120 3253.33 120 3200 120C3146.67 120 3093.33 120 3040 120C2986.67 120 2933.33 120 2880 120C2826.67 120 2773.33 120 2720 120C2666.67 120 2613.33 120 2560 120C2506.67 120 2453.33 120 2400 120C2346.67 120 2293.33 120 2240 120C2186.67 120 2133.33 120 2080 120C2026.67 120 1973.33 120 1920 120C1866.67 120 1813.33 120 1760 120C1706.67 120 1653.33 120 1600 120C1546.67 120 1493.33 120 1440 120C1386.67 120 1333.33 120 1280 120C1226.67 120 1173.33 120 1120 120C1066.67 120 1013.33 120 960 120C906.667 120 853.333 120 800 120C746.667 120 693.333 120 640 120C586.667 120 533.333 120 480 120C426.667 120 373.333 120 320 120C266.667 120 213.333 120 160 120C106.667 120 53.3333 120 26.6667 120H0V47.9999Z" fill="url(#paint0_linear_3415_15)"/>
<path opacity="0.9" d="M0 84.0001L26.6667 74.0001C53.3333 64.0001 106.667 44.0001 160 36.0001C213.333 28.0001 266.667 32.0001 320 36.0001C373.333 40.0001 426.667 44.0001 480 48.0001C533.333 52.0001 586.667 56.0001 640 54.0001C693.333 52.0001 746.667 44.0001 800 36.0001C853.333 28.0001 906.667 20.0001 960 28.0001C1013.33 36.0001 1066.67 60.0001 1120 72.0001C1173.33 84.0001 1226.67 84.0001 1280 74.0001C1333.33 64.0001 1386.67 44.0001 1440 44.0001C1493.33 44.0001 1546.67 64.0001 1600 64.0001C1653.33 64.0001 1706.67 44.0001 1760 48.0001C1813.33 52.0001 1866.67 80.0001 1920 76.0001C1973.33 72.0001 2026.67 36.0001 2080 20.0001C2133.33 4.00007 2186.67 8.00007 2240 26.0001C2293.33 44.0001 2346.67 76.0001 2400 74.0001C2453.33 72.0001 2506.67 36.0001 2560 20.0001C2613.33 4.00007 2666.67 8.00007 2720 12.0001C2773.33 16.0001 2826.67 20.0001 2880 22.0001C2933.33 24.0001 2986.67 24.0001 3040 24.0001C3093.33 24.0001 3146.67 24.0001 3200 22.0001C3253.33 20.0001 3306.67 16.0001 3360 28.0001C3413.33 40.0001 3466.67 68.0001 3520 66.0001C3573.33 64.0001 3626.67 32.0001 3680 26.0001C3733.33 20.0001 3786.67 40.0001 3813.33 50.0001L3840 60.0001V120H3813.33C3786.67 120 3733.33 120 3680 120C3626.67 120 3573.33 120 3520 120C3466.67 120 3413.33 120 3360 120C3306.67 120 3253.33 120 3200 120C3146.67 120 3093.33 120 3040 120C2986.67 120 2933.33 120 2880 120C2826.67 120 2773.33 120 2720 120C2666.67 120 2613.33 120 2560 120C2506.67 120 2453.33 120 2400 120C2346.67 120 2293.33 120 2240 120C2186.67 120 2133.33 120 2080 120C2026.67 120 1973.33 120 1920 120C1866.67 120 1813.33 120 1760 120C1706.67 120 1653.33 120 1600 120C1546.67 120 1493.33 120 1440 120C1386.67 120 1333.33 120 1280 120C1226.67 120 1173.33 120 1120 120C1066.67 120 1013.33 120 960 120C906.667 120 853.333 120 800 120C746.667 120 693.333 120 640 120C586.667 120 533.333 120 480 120C426.667 120 373.333 120 320 120C266.667 120 213.333 120 160 120C106.667 120 53.3333 120 26.6667 120H0V84.0001Z" fill="url(#paint1_linear_3415_15)"/>
<path opacity="0.8" d="M0 36.0002L26.6667 46.0002C53.3333 56.0002 106.667 76.0002 160 72.0002C213.333 68.0002 266.667 40.0002 320 40.0002C373.333 40.0002 426.667 68.0002 480 76.0002C533.333 84.0002 586.667 72.0002 640 68.0002C693.333 64.0002 746.667 68.0002 800 60.0002C853.333 52.0002 906.667 32.0002 960 20.0002C1013.33 8.00016 1066.67 4.00016 1120 2.00016C1173.33 0.000157454 1226.67 0.000157666 1280 16.0002C1333.33 32.0002 1386.67 64.0002 1440 74.0002C1493.33 84.0002 1546.67 72.0002 1600 64.0002C1653.33 56.0002 1706.67 52.0002 1760 48.0002C1813.33 44.0002 1866.67 40.0002 1920 46.0002C1973.33 52.0002 2026.67 68.0002 2080 64.0002C2133.33 60.0002 2186.67 36.0002 2240 30.0002C2293.33 24.0002 2346.67 36.0002 2400 36.0002C2453.33 36.0002 2506.67 24.0002 2560 26.0002C2613.33 28.0002 2666.67 44.0002 2720 58.0002C2773.33 72.0002 2826.67 84.0002 2880 90.0002C2933.33 96.0002 2986.67 96.0002 3040 86.0002C3093.33 76.0002 3146.67 56.0002 3200 56.0002C3253.33 56.0002 3306.67 76.0002 3360 86.0002C3413.33 96.0002 3466.67 96.0002 3520 94.0002C3573.33 92.0002 3626.67 88.0002 3680 84.0002C3733.33 80.0002 3786.67 76.0002 3813.33 74.0002L3840 72.0002V120H3813.33C3786.67 120 3733.33 120 3680 120C3626.67 120 3573.33 120 3520 120C3466.67 120 3413.33 120 3360 120C3306.67 120 3253.33 120 3200 120C3146.67 120 3093.33 120 3040 120C2986.67 120 2933.33 120 2880 120C2826.67 120 2773.33 120 2720 120C2666.67 120 2613.33 120 2560 120C2506.67 120 2453.33 120 2400 120C2346.67 120 2293.33 120 2240 120C2186.67 120 2133.33 120 2080 120C2026.67 120 1973.33 120 1920 120C1866.67 120 1813.33 120 1760 120C1706.67 120 1653.33 120 1600 120C1546.67 120 1493.33 120 1440 120C1386.67 120 1333.33 120 1280 120C1226.67 120 1173.33 120 1120 120C1066.67 120 1013.33 120 960 120C906.667 120 853.333 120 800 120C746.667 120 693.333 120 640 120C586.667 120 533.333 120 480 120C426.667 120 373.333 120 320 120C266.667 120 213.333 120 160 120C106.667 120 53.3333 120 26.6667 120H0V36.0002Z" fill="url(#paint2_linear_3415_15)"/>
<path opacity="0.7" d="M0 35.9999L26.6667 41.9999C53.3333 47.9999 106.667 59.9999 160 59.9999C213.333 59.9999 266.667 47.9999 320 35.9999C373.333 23.9999 426.667 11.9999 480 23.9999C533.333 35.9999 586.667 71.9999 640 77.9999C693.333 83.9999 746.667 59.9999 800 55.9999C853.333 51.9999 906.667 67.9999 960 75.9999C1013.33 83.9999 1066.67 83.9999 1120 71.9999C1173.33 59.9999 1226.67 35.9999 1280 25.9999C1333.33 15.9999 1386.67 19.9999 1440 19.9999C1493.33 19.9999 1546.67 15.9999 1600 19.9999C1653.33 23.9999 1706.67 35.9999 1760 41.9999C1813.33 47.9999 1866.67 47.9999 1920 45.9999C1973.33 43.9999 2026.67 39.9999 2080 43.9999C2133.33 47.9999 2186.67 59.9999 2240 55.9999C2293.33 51.9999 2346.67 31.9999 2400 23.9999C2453.33 15.9999 2506.67 19.9999 2560 35.9999C2613.33 51.9999 2666.67 79.9999 2720 87.9999C2773.33 95.9999 2826.67 83.9999 2880 77.9999C2933.33 71.9999 2986.67 71.9999 3040 65.9999C3093.33 59.9999 3146.67 47.9999 3200 45.9999C3253.33 43.9999 3306.67 51.9999 3360 63.9999C3413.33 75.9999 3466.67 91.9999 3520 87.9999C3573.33 83.9999 3626.67 59.9999 3680 49.9999C3733.33 39.9999 3786.67 43.9999 3813.33 45.9999L3840 47.9999V120H3813.33C3786.67 120 3733.33 120 3680 120C3626.67 120 3573.33 120 3520 120C3466.67 120 3413.33 120 3360 120C3306.67 120 3253.33 120 3200 120C3146.67 120 3093.33 120 3040 120C2986.67 120 2933.33 120 2880 120C2826.67 120 2773.33 120 2720 120C2666.67 120 2613.33 120 2560 120C2506.67 120 2453.33 120 2400 120C2346.67 120 2293.33 120 2240 120C2186.67 120 2133.33 120 2080 120C2026.67 120 1973.33 120 1920 120C1866.67 120 1813.33 120 1760 120C1706.67 120 1653.33 120 1600 120C1546.67 120 1493.33 120 1440 120C1386.67 120 1333.33 120 1280 120C1226.67 120 1173.33 120 1120 120C1066.67 120 1013.33 120 960 120C906.667 120 853.333 120 800 120C746.667 120 693.333 120 640 120C586.667 120 533.333 120 480 120C426.667 120 373.333 120 320 120C266.667 120 213.333 120 160 120C106.667 120 53.3333 120 26.6667 120H0V35.9999Z" fill="url(#paint3_linear_3415_15)"/>
</g>
<defs>
<linearGradient id="paint0_linear_3415_15" x1="0" y1="120" x2="0" y2="14.2939" gradientUnits="userSpaceOnUse">
<stop stop-color="#1470FA"/>
<stop offset="1" stop-color="#1470FA"/>
</linearGradient>
<linearGradient id="paint1_linear_3415_15" x1="0" y1="120" x2="0" y2="8.42236" gradientUnits="userSpaceOnUse">
<stop stop-color="#1470FA"/>
<stop offset="1" stop-color="#1470FA"/>
</linearGradient>
<linearGradient id="paint2_linear_3415_15" x1="0" y1="120" x2="0" y2="1.0918" gradientUnits="userSpaceOnUse">
<stop stop-color="#1470FA"/>
<stop offset="1" stop-color="#1470FA"/>
</linearGradient>
<linearGradient id="paint3_linear_3415_15" x1="0" y1="120" x2="0" y2="18.2222" gradientUnits="userSpaceOnUse">
<stop stop-color="#1470FA"/>
<stop offset="1" stop-color="#1470FA"/>
</linearGradient>
<clipPath id="clip0_3415_15">
<rect width="1280" height="120" fill="white"/>
</clipPath>
</defs>
</svg>
