<svg width="422" height="336" viewBox="0 0 422 336" fill="none" xmlns="http://www.w3.org/2000/svg">
<path d="M422 297.375H0V297.586H422V297.375Z" fill="#EBEBEB"/>
<path d="M94.2404 304.456H66.2871V304.667H94.2404V304.456Z" fill="#EBEBEB"/>
<path d="M137.995 310.541H112.531V310.752H137.995V310.541Z" fill="#EBEBEB"/>
<path d="M80.2635 312.289H47.9805V312.5H80.2635V312.289Z" fill="#EBEBEB"/>
<path d="M379.716 311.833H366.297V312.044H379.716V311.833Z" fill="#EBEBEB"/>
<path d="M363.586 311.833H330.4V312.044H363.586V311.833Z" fill="#EBEBEB"/>
<path d="M236.599 304.347H211V304.558H236.599V304.347Z" fill="#EBEBEB"/>
<path d="M301.114 304.347H240.262V304.558H301.114V304.347Z" fill="#EBEBEB"/>
<path d="M200.029 259.732H37.0608C35.7841 259.73 34.5605 259.221 33.6585 258.318C32.7566 257.414 32.25 256.189 32.25 254.913V25.8259C32.2611 24.5565 32.7726 23.3428 33.6734 22.4484C34.5741 21.5539 35.7914 21.051 37.0608 21.0488H200.029C201.307 21.0488 202.533 21.5566 203.436 22.4604C204.34 23.3641 204.848 24.5899 204.848 25.8681V254.913C204.848 256.191 204.34 257.417 203.436 258.321C202.533 259.224 201.307 259.732 200.029 259.732ZM37.0608 21.2176C35.8401 21.2199 34.6701 21.7064 33.8077 22.5703C32.9453 23.4343 32.461 24.6051 32.461 25.8259V254.913C32.461 256.134 32.9453 257.304 33.8077 258.168C34.6701 259.032 35.8401 259.519 37.0608 259.521H200.029C201.25 259.519 202.421 259.033 203.285 258.169C204.149 257.305 204.635 256.134 204.637 254.913V25.8259C204.635 24.6044 204.149 23.4335 203.285 22.5698C202.421 21.7061 201.25 21.2199 200.029 21.2176H37.0608Z" fill="#EBEBEB"/>
<path d="M382.594 259.732H219.618C218.341 259.73 217.116 259.221 216.213 258.318C215.31 257.415 214.801 256.19 214.799 254.913V25.8259C214.812 24.5557 215.326 23.342 216.228 22.4478C217.13 21.5536 218.348 21.051 219.618 21.0488H382.594C383.862 21.0532 385.078 21.5571 385.976 22.4513C386.875 23.3455 387.386 24.558 387.397 25.8259V254.913C387.397 256.188 386.891 257.411 385.991 258.315C385.091 259.218 383.87 259.728 382.594 259.732ZM219.618 21.2176C218.397 21.2199 217.226 21.7061 216.362 22.5698C215.498 23.4335 215.012 24.6044 215.01 25.8259V254.913C215.012 256.134 215.498 257.305 216.362 258.169C217.226 259.033 218.397 259.519 219.618 259.521H382.594C383.816 259.519 384.987 259.033 385.851 258.169C386.714 257.305 387.2 256.134 387.203 254.913V25.8259C387.2 24.6044 386.714 23.4335 385.851 22.5698C384.987 21.7061 383.816 21.2199 382.594 21.2176H219.618Z" fill="#EBEBEB"/>
<path d="M362.312 173.906L349.379 160.973L230.216 280.136L243.149 293.068L362.312 173.906Z" fill="#EBEBEB"/>
<path d="M305.469 230.741L292.539 217.803L274.908 235.434L286.766 254.348L305.469 230.741Z" fill="#E0E0E0"/>
<path d="M243.146 293.068L247.455 297.377L366.618 178.214L362.309 173.905L243.146 293.068Z" fill="#E0E0E0"/>
<path d="M243.149 165.276L230.217 178.209L349.379 297.372L362.312 284.439L243.149 165.276Z" fill="#EBEBEB"/>
<path d="M362.312 284.441L366.621 280.132L247.458 160.969L243.15 165.278L362.312 284.441Z" fill="#E0E0E0"/>
<path d="M148.714 201.284L138.646 191.216L45.9041 283.958L55.972 294.026L148.714 201.284Z" fill="#EBEBEB"/>
<path d="M104.469 245.511L94.4005 235.451L80.6855 249.174L89.9105 263.885L104.469 245.511Z" fill="#E0E0E0"/>
<path d="M55.9644 294.023L59.3184 297.377L152.061 204.635L148.707 201.281L55.9644 294.023Z" fill="#E0E0E0"/>
<path d="M55.9762 194.569L45.9082 204.637L138.651 297.38L148.719 287.312L55.9762 194.569Z" fill="#EBEBEB"/>
<path d="M148.703 287.306L152.057 283.952L59.3142 191.209L55.9602 194.563L148.703 287.306Z" fill="#E0E0E0"/>
<path d="M269.126 206.822H254.264V297.367H269.126V206.822Z" fill="#F5F5F5"/>
<path d="M269.126 244.448H254.264V255.31L269.126 252.103V244.448Z" fill="#EBEBEB"/>
<path d="M269.118 297.375H274.072V206.831H269.118V297.375Z" fill="#EBEBEB"/>
<path d="M113.433 206.822H98.5703V297.367H113.433V206.822Z" fill="#F5F5F5"/>
<path d="M113.425 244.448H98.5703V255.31L113.425 252.103V244.448Z" fill="#EBEBEB"/>
<path d="M113.425 297.375H118.379L118.379 206.831H113.425L113.425 297.375Z" fill="#EBEBEB"/>
<path d="M276.925 220.099H87.2363V247.968H276.925V220.099Z" fill="#F5F5F5"/>
<path d="M276.926 247.959H279.711V220.09H276.926V247.959Z" fill="#EBEBEB"/>
<path d="M204.863 191.681H167.778L141.555 217.904V254.989L167.778 281.212H204.863L231.086 254.989V217.904L204.863 191.681Z" fill="#FAFAFA"/>
<path d="M203.167 195.774H169.475L145.648 219.601V253.293L169.475 277.119H203.167L226.993 253.293V219.601L203.167 195.774Z" fill="#E0E0E0"/>
<path d="M153.768 240.338L158.511 239.916C158.55 240.793 158.762 241.653 159.135 242.448C159.331 242.866 159.642 243.22 160.033 243.467C160.423 243.714 160.876 243.843 161.338 243.84C161.656 243.866 161.975 243.815 162.269 243.691C162.562 243.568 162.822 243.376 163.026 243.131C163.419 242.658 163.626 242.058 163.609 241.443C163.613 240.861 163.416 240.294 163.052 239.84C162.34 239.179 161.467 238.719 160.52 238.506C158.724 238.051 157.099 237.084 155.844 235.721C154.862 234.455 154.363 232.882 154.434 231.282C154.423 230.117 154.668 228.965 155.152 227.906C155.612 226.883 156.367 226.022 157.321 225.433C158.533 224.767 159.907 224.454 161.288 224.53C162.144 224.471 163.003 224.586 163.814 224.867C164.624 225.148 165.37 225.59 166.006 226.167C167.086 227.256 167.694 228.994 167.938 231.374L163.237 231.771C163.193 230.958 162.921 230.175 162.452 229.509C162.243 229.272 161.982 229.086 161.689 228.964C161.397 228.843 161.08 228.79 160.764 228.809C160.521 228.792 160.277 228.831 160.051 228.922C159.824 229.012 159.621 229.152 159.456 229.332C159.16 229.69 159.004 230.143 159.017 230.606C159.013 230.969 159.142 231.32 159.38 231.594C159.854 232.026 160.438 232.318 161.068 232.438C162.725 232.868 164.305 233.551 165.752 234.464C166.659 235.101 167.372 235.978 167.812 236.996C168.25 238.066 168.469 239.214 168.453 240.372C168.473 241.773 168.185 243.162 167.609 244.44C167.106 245.602 166.269 246.589 165.204 247.275C164.027 247.957 162.68 248.29 161.321 248.238C158.581 248.238 156.682 247.484 155.624 245.976C154.491 244.307 153.848 242.354 153.768 240.338Z" fill="white"/>
<path d="M169.787 224.959H184.979V230.64H179.915V247.933H174.927V230.64H169.863L169.787 224.959Z" fill="white"/>
<path d="M185.798 236.463C185.798 232.716 186.532 229.795 188.001 227.702C188.711 226.736 189.638 225.949 190.707 225.405C191.776 224.862 192.958 224.576 194.158 224.571C195.357 224.566 196.541 224.842 197.615 225.377C198.688 225.912 199.622 226.691 200.34 227.652C201.82 229.705 202.56 232.578 202.56 236.269C202.63 238.511 202.307 240.747 201.606 242.877C201.08 244.444 200.127 245.832 198.855 246.886C197.572 247.87 195.988 248.377 194.373 248.321C192.776 248.385 191.198 247.952 189.858 247.081C188.531 246.084 187.522 244.723 186.954 243.164C186.136 241.027 185.744 238.751 185.798 236.463ZM190.786 236.463C190.786 238.787 191.09 240.452 191.698 241.46C191.934 241.912 192.289 242.292 192.726 242.557C193.163 242.822 193.664 242.962 194.175 242.962C194.685 242.962 195.186 242.822 195.623 242.557C196.06 242.292 196.416 241.912 196.652 241.46C197.243 240.464 197.496 238.683 197.496 236.117C197.608 234.484 197.294 232.849 196.584 231.374C196.34 230.917 195.974 230.535 195.528 230.272C195.081 230.008 194.571 229.873 194.052 229.88C193.548 229.886 193.055 230.031 192.628 230.299C192.2 230.567 191.855 230.948 191.63 231.399C191.067 232.457 190.786 234.156 190.786 236.497V236.463Z" fill="white"/>
<path d="M205.184 224.96H213.472C214.248 224.908 215.025 225.049 215.733 225.37C216.441 225.691 217.059 226.182 217.532 226.8C218.52 228.352 218.99 230.179 218.874 232.015C218.988 233.939 218.472 235.847 217.405 237.451C216.874 238.118 216.188 238.644 215.407 238.986C214.626 239.327 213.774 239.472 212.924 239.409H210.155V247.933H205.15L205.184 224.96ZM210.155 234.758H211.379C211.749 234.799 212.123 234.756 212.474 234.631C212.825 234.507 213.143 234.305 213.405 234.041C213.809 233.522 214.015 232.876 213.987 232.218C214.028 231.567 213.869 230.919 213.531 230.361C213.304 230.086 213.01 229.873 212.678 229.742C212.346 229.61 211.986 229.565 211.632 229.61H210.155V234.758Z" fill="white"/>
<path d="M347.18 61.3502C346.299 61.3541 345.421 61.4589 344.564 61.6625C343.45 59.1305 340.977 57.5522 337.643 57.5522C335.09 57.6147 332.611 58.4214 330.511 59.8732C329.093 55.113 324.848 51.9312 318.923 51.9312C310.483 51.9312 301.663 58.3793 298.473 66.6168C297.693 66.4338 296.894 66.3432 296.093 66.3467H295.299C288.033 66.8362 288.547 77.8082 295.865 77.8082H347.729C348.626 77.8112 349.512 77.6026 350.314 77.1994C351.116 76.7961 351.812 76.2096 352.345 75.4872C353.24 74.272 353.923 72.9135 354.362 71.4698C355.966 65.8825 352.793 61.3502 347.18 61.3502Z" fill="#F0F0F0"/>
<path d="M144.629 12.7191C143.498 5.22436 137.522 0 128.787 0C121.63 0 114.253 3.5026 108.759 8.89576C107.156 7.50613 105.089 6.7709 102.969 6.8364C96.9089 6.8364 90.5536 11.7485 88.7643 17.8084C88.4988 18.7028 88.3485 19.6274 88.317 20.5598L88.1904 20.6442C83.177 24.0202 85.6584 31.9454 91.7689 31.9454H145.169C146.188 31.9536 147.192 31.707 148.091 31.2279C148.991 30.7489 149.756 30.0526 150.317 29.2024C151.152 27.9293 151.797 26.542 152.233 25.0837C154.098 18.6355 150.748 13.3268 144.629 12.7191Z" fill="#F0F0F0"/>
<path d="M208.366 96.4183C206.813 86.1131 198.601 78.9307 186.591 78.9307C176.742 78.9307 166.605 83.7499 159.06 91.1602C156.863 89.2446 154.023 88.2315 151.109 88.3244C142.788 88.3244 134.035 95.0764 131.579 103.407C131.214 104.636 131.007 105.906 130.963 107.188L130.794 107.298C123.882 111.999 127.309 122.836 135.664 122.836H205.936C208.785 122.856 211.565 121.959 213.866 120.278C216.167 118.598 217.867 116.221 218.714 113.501V113.4C221.398 104.546 216.781 97.2455 208.366 96.4183Z" fill="#F5F5F5"/>
<path d="M211.001 335.49C301.378 335.49 374.644 331.212 374.644 325.936C374.644 320.659 301.378 316.382 211.001 316.382C120.623 316.382 47.3574 320.659 47.3574 325.936C47.3574 331.212 120.623 335.49 211.001 335.49Z" fill="#F5F5F5"/>
<path d="M108.656 83.4382H66.2871V64.3131L108.656 13.9517H128.912V65.4357H139.42V83.4804H128.929V99.1282H108.673L108.656 83.4382ZM108.656 65.3935V39.0522L86.273 65.3935H108.656Z" fill="#263238"/>
<path d="M307.983 13.9517V99.086H284.427V43.2975C280.99 45.9666 277.318 48.317 273.455 50.3196C269.14 52.4009 264.66 54.1202 260.061 55.4596V36.3936C267.977 33.8335 274.124 30.767 278.502 27.194C282.884 23.6126 286.399 19.0853 288.782 13.9517H307.983Z" fill="#263238"/>
<path d="M263.176 120.801C262.804 121.468 262.517 121.949 262.188 122.489C261.859 123.029 261.53 123.536 261.201 124.059C260.534 125.089 259.825 126.085 259.108 127.081C257.661 129.077 256.108 130.996 254.457 132.828C252.777 134.708 250.969 136.47 249.047 138.103C247.05 139.834 244.881 141.355 242.574 142.644C241.848 143.067 241.088 143.432 240.303 143.733C239.483 144.045 238.635 144.283 237.771 144.442C236.231 144.708 234.663 144.782 233.104 144.661C230.407 144.426 227.756 143.812 225.23 142.838C222.898 141.949 220.64 140.876 218.478 139.631C216.352 138.418 214.321 137.046 212.401 135.529C211.857 135.088 211.488 134.468 211.359 133.78C211.23 133.092 211.35 132.381 211.696 131.773C212.043 131.165 212.594 130.699 213.252 130.46C213.909 130.22 214.631 130.222 215.287 130.465L215.439 130.524C219.413 132.113 223.516 133.358 227.702 134.246C229.547 134.631 231.432 134.787 233.315 134.71C234.05 134.679 234.777 134.545 235.476 134.314C235.736 134.229 235.988 134.118 236.227 133.984C236.463 133.849 236.505 133.807 236.986 133.478C240.217 131.104 243.115 128.308 245.604 125.165C246.929 123.544 248.22 121.865 249.444 120.101C250.068 119.257 250.659 118.354 251.259 117.476L252.103 116.159L252.896 114.918L253.031 114.707C253.867 113.43 255.164 112.525 256.652 112.183C258.14 111.841 259.702 112.089 261.012 112.873C262.321 113.658 263.276 114.919 263.677 116.392C264.077 117.865 263.891 119.436 263.159 120.776L263.176 120.801Z" fill="#FF8B7B"/>
<path d="M216.687 131.157L210.214 126.869L207.471 135.478C208.768 136.162 210.225 136.483 211.69 136.409C213.154 136.335 214.571 135.867 215.793 135.056L216.687 131.157Z" fill="#FF8B7B"/>
<path d="M204.247 128.161L203.741 130.904C203.649 131.39 203.697 131.893 203.879 132.353C204.061 132.813 204.37 133.212 204.77 133.504L207.446 135.479L210.189 126.87L207.589 126.11C207.235 126.006 206.862 125.977 206.496 126.026C206.13 126.075 205.778 126.2 205.463 126.393C205.148 126.586 204.877 126.844 204.667 127.148C204.458 127.453 204.315 127.798 204.247 128.161Z" fill="#FF8B7B"/>
<path d="M263.378 107.087C256.786 108.125 250.118 115.864 246.109 123.08C248.742 127.67 252.731 131.332 257.529 133.563C257.529 133.563 265.344 126.169 268.501 120.7C271.657 115.231 269.581 106.099 263.378 107.087Z" fill="#1470FA"/>
<path opacity="0.2" d="M263.378 107.087C256.786 108.125 250.118 115.864 246.109 123.08C248.742 127.67 252.731 131.332 257.529 133.563C257.529 133.563 265.344 126.169 268.501 120.7C271.657 115.231 269.581 106.099 263.378 107.087Z" fill="black"/>
<path d="M246.363 121.426C245.752 122.118 245.274 122.916 244.953 123.781C246.599 126.313 250.507 133.065 257.799 134.5C258.508 134.104 259.05 133.466 259.326 132.702C259.326 132.702 250.937 128.567 246.363 121.426Z" fill="#263238"/>
<path d="M289.938 106.858C281.97 105.525 273.856 105.292 265.825 106.166C259.833 106.934 255.359 112.446 255.402 118.48C255.431 124.776 255.996 131.059 257.09 137.259C254.887 148.864 254.093 164.639 256.414 168.116L297.931 168.698C299.712 163.736 297.475 142.256 299.847 119.831C300.168 116.811 299.32 113.783 297.477 111.37C295.634 108.957 292.936 107.342 289.938 106.858Z" fill="#1470FA"/>
<path opacity="0.2" d="M274.3 168.167C271.929 149.489 274.3 118.253 274.3 117.932L275.144 118C275.144 118.312 272.789 149.464 275.144 168.057L274.3 168.167Z" fill="black"/>
<path d="M269.785 106.748C271.211 106.217 270.679 105.423 270.679 105.423C270.679 105.423 264.197 105.423 259.707 106.63C259.024 107.356 259.758 108.318 259.758 108.318C259.758 108.318 265.539 108.335 269.785 106.748Z" fill="#263238"/>
<path opacity="0.2" d="M272.433 105.449C272.433 105.449 269.758 110.395 273.337 114.893C270.501 114.893 268.669 119.73 268.669 119.73C268.669 119.73 263.133 112.032 270.214 105.88C270.61 105.263 272.433 105.449 272.433 105.449Z" fill="black"/>
<path d="M269.572 107.846C268.88 110.868 274.966 116.565 274.966 116.565C274.966 116.565 285.727 111.366 286.41 108.386L269.572 107.846Z" fill="white"/>
<path opacity="0.2" d="M293.863 125.528C292.715 127.739 294.243 137.344 298.674 141.403C298.725 137.437 298.843 133.225 299.096 128.895L293.863 125.528Z" fill="black"/>
<path d="M284.167 90.4683L273.06 97.7604C274.376 100.985 274.992 104.344 271.194 105.897C270.707 106.093 270.289 106.43 269.995 106.865C269.7 107.301 269.543 107.814 269.543 108.34C269.543 108.866 269.7 109.379 269.995 109.815C270.289 110.25 270.707 110.587 271.194 110.783C272.313 111.19 273.484 111.438 274.672 111.518C278.242 111.864 281.841 111.283 285.12 109.83C285.466 109.657 285.769 109.411 286.01 109.109C286.251 108.808 286.423 108.457 286.515 108.082C286.606 107.707 286.615 107.316 286.541 106.937C286.466 106.558 286.31 106.2 286.083 105.888C283.171 101.769 283.525 94.6123 284.167 90.4683Z" fill="#FF8B7B"/>
<path opacity="0.2" d="M279.641 93.439L273.066 97.7518C273.436 98.6338 273.718 99.5496 273.91 100.486C276.535 100.334 279.962 98.2582 280.029 96.0891C280.095 95.188 279.962 94.2835 279.641 93.439Z" fill="black"/>
<path d="M271.835 76.5588C274.663 76.4997 275.431 80.5594 274.367 81.9351C276.511 82.3993 277.549 84.906 276.899 86.1551C276.249 87.4042 273.768 88.8137 271.557 88.2567C267.767 87.3114 267.117 84.1633 268.181 82.7285C266.155 81.0573 267.185 75.9089 271.835 76.5588Z" fill="#263238"/>
<path opacity="0.2" d="M271.835 76.5588C274.663 76.4997 275.431 80.5594 274.367 81.9351C276.511 82.3993 277.549 84.906 276.899 86.1551C276.249 87.4042 273.768 88.8137 271.557 88.2567C267.767 87.3114 267.117 84.1633 268.181 82.7285C266.155 81.0573 267.185 75.9089 271.835 76.5588Z" fill="white"/>
<path d="M287.803 83.2512C286.959 89.9104 286.799 93.8518 283.195 97.0422C277.768 101.828 269.691 98.1478 268.543 91.3452C267.496 85.2262 269.058 75.3598 275.785 73.1823C277.275 72.708 278.861 72.6179 280.395 72.9204C281.93 73.2229 283.363 73.9081 284.562 74.9125C285.761 75.9169 286.687 77.208 287.253 78.6657C287.82 80.1235 288.009 81.7008 287.803 83.2512Z" fill="#FF8B7B"/>
<path d="M287.002 88.3413C284.174 88.3413 283.55 84.2226 284.63 82.889C282.503 82.3404 281.558 79.8 282.216 78.5509C282.875 77.3017 285.432 76.0189 287.626 76.635C291.382 77.7153 291.931 80.855 290.842 82.2814C292.868 84.0538 291.627 89.1346 287.002 88.3413Z" fill="#263238"/>
<path opacity="0.2" d="M287.002 88.3413C284.174 88.3413 283.55 84.2226 284.63 82.889C282.503 82.3404 281.558 79.8 282.216 78.5509C282.875 77.3017 285.432 76.0189 287.626 76.635C291.382 77.7153 291.931 80.855 290.842 82.2814C292.868 84.0538 291.627 89.1346 287.002 88.3413Z" fill="white"/>
<path opacity="0.2" d="M280.207 84.349C280.547 84.2567 280.901 84.2323 281.25 84.2772C281.599 84.3221 281.936 84.4354 282.241 84.6107C281.553 84.6546 280.862 84.5658 280.207 84.349Z" fill="black"/>
<path opacity="0.2" d="M280.207 84.8052C280.528 84.7871 280.85 84.8397 281.149 84.9593C281.448 85.0789 281.717 85.2625 281.937 85.4973C281.318 85.3907 280.729 85.1548 280.207 84.8052Z" fill="black"/>
<path opacity="0.2" d="M269.632 83.8345C269.554 83.7886 269.468 83.7589 269.378 83.7473C269.289 83.7356 269.198 83.7422 269.111 83.7667C269.025 83.7912 268.944 83.833 268.873 83.8896C268.803 83.9462 268.745 84.0165 268.703 84.0961C269.035 84.1348 269.369 84.0408 269.632 83.8345Z" fill="black"/>
<path opacity="0.2" d="M269.64 84.3492C269.64 84.3492 269.126 84.2733 268.855 85.0413C269.178 84.8911 269.451 84.6507 269.64 84.3492Z" fill="black"/>
<path d="M289.812 90.0375C289.038 91.4305 287.766 92.4796 286.251 92.9746C284.326 93.5317 283.558 91.6073 284.25 89.5986C284.883 87.8009 286.63 85.3364 288.47 85.6656C290.31 85.9947 290.825 88.2567 289.812 90.0375Z" fill="#FF8B7B"/>
<path d="M278.858 84.3493C278.858 84.8894 278.512 85.3114 278.149 85.2861C277.786 85.2608 277.533 84.7966 277.575 84.248C277.617 83.6994 277.921 83.2858 278.284 83.3112C278.647 83.3365 278.9 83.8176 278.858 84.3493Z" fill="#263238"/>
<path d="M276.157 94.2662C275.465 94.4013 274.832 94.1312 274.747 93.6754C274.663 93.2197 275.169 92.747 275.862 92.612C276.554 92.477 277.187 92.747 277.271 93.2028C277.355 93.6586 276.832 94.1396 276.157 94.2662Z" fill="#263238"/>
<path d="M271.471 83.7668C271.471 84.3069 271.117 84.7289 270.762 84.7036C270.408 84.6783 270.138 84.2141 270.18 83.6655C270.222 83.1169 270.535 82.7033 270.889 82.7286C271.244 82.754 271.505 83.2182 271.471 83.7668Z" fill="#263238"/>
<path d="M273.152 89.2023C269.202 89.4724 268.442 91.3967 269.134 92.2407C269.826 93.0847 271.514 92.2407 271.514 92.2407C271.514 92.2407 274.713 92.9243 275.65 91.9031C277.161 92.5445 279.465 91.3461 278.815 90.4345C278.165 89.523 276.536 88.966 273.152 89.2023Z" fill="#263238"/>
<path opacity="0.2" d="M273.152 89.2023C269.202 89.4724 268.442 91.3967 269.134 92.2407C269.826 93.0847 271.514 92.2407 271.514 92.2407C271.514 92.2407 274.713 92.9243 275.65 91.9031C277.161 92.5445 279.465 91.3461 278.815 90.4345C278.165 89.523 276.536 88.966 273.152 89.2023Z" fill="white"/>
<path d="M273.269 84.3486C272.51 85.9647 271.53 87.4673 270.357 88.8134C270.712 89.1066 271.125 89.3195 271.57 89.4375C272.014 89.5555 272.479 89.5758 272.932 89.497L273.269 84.3486Z" fill="#FF5652"/>
<path d="M280.047 81.5131C280.101 81.5065 280.153 81.4893 280.199 81.4625C280.235 81.4394 280.266 81.4095 280.29 81.3744C280.314 81.3394 280.331 81.2999 280.339 81.2582C280.348 81.2166 280.348 81.1737 280.34 81.132C280.332 81.0902 280.316 81.0505 280.292 81.0152C280.023 80.5782 279.652 80.2127 279.211 79.9497C278.77 79.6867 278.273 79.5339 277.76 79.5044C277.675 79.5044 277.594 79.5382 277.533 79.5983C277.473 79.6585 277.439 79.7401 277.439 79.8251C277.439 79.9102 277.473 79.9917 277.533 80.0519C277.594 80.112 277.675 80.1458 277.76 80.1458C278.164 80.1751 278.555 80.3008 278.9 80.5123C279.245 80.7237 279.534 81.0148 279.744 81.3612C279.775 81.4124 279.82 81.4538 279.874 81.4807C279.927 81.5075 279.988 81.5188 280.047 81.5131Z" fill="#263238"/>
<path d="M269.05 80.8803C269.103 80.8793 269.155 80.8658 269.202 80.8409C269.249 80.816 269.289 80.7803 269.32 80.7368C269.536 80.3988 269.829 80.1169 270.176 79.9144C270.522 79.7119 270.911 79.5946 271.312 79.5721C271.397 79.5721 271.478 79.5383 271.539 79.4782C271.599 79.418 271.633 79.3364 271.633 79.2514C271.633 79.1663 271.599 79.0847 271.539 79.0246C271.478 78.9645 271.397 78.9307 271.312 78.9307C270.804 78.951 270.309 79.0936 269.868 79.3463C269.427 79.599 269.054 79.9544 268.78 80.3823C268.756 80.417 268.74 80.4561 268.732 80.4972C268.724 80.5382 268.725 80.5805 268.733 80.6214C268.742 80.6624 268.759 80.7012 268.783 80.7355C268.807 80.7698 268.837 80.799 268.873 80.8212C268.923 80.8607 268.986 80.8816 269.05 80.8803Z" fill="#263238"/>
<path d="M279.946 236.944C281.837 206.493 281.415 175.248 278.131 168.445L256.398 168.116C256.398 168.116 259.108 219.026 259.952 239.308C260.838 260.408 262.728 315.268 262.728 315.268L275.304 315.42C275.304 315.42 282.681 260.5 279.946 236.944Z" fill="#263238"/>
<path opacity="0.2" d="M280.884 190.397C273.465 198.5 276.934 220.933 280.166 233.29C281.052 217.836 281.289 202.45 280.884 190.397Z" fill="black"/>
<path d="M275.144 317.006L264.087 316.863C263.387 316.827 262.696 317.033 262.129 317.445C258.922 319.977 256.483 320.053 252.845 320.703C248.482 321.488 250.642 325.877 253.858 325.927C259.175 326.012 258.728 325.818 263.269 325.885L266.408 325.927L267.826 324.484L269.084 325.927H274.891C275.041 325.931 275.191 325.902 275.33 325.843C275.469 325.783 275.593 325.696 275.695 325.585C275.798 325.474 275.875 325.342 275.923 325.199C275.97 325.056 275.987 324.904 275.971 324.754L275.144 317.006Z" fill="#263238"/>
<path d="M275.987 318.137C275.793 318.137 261.479 317.681 261.479 317.681L260.896 312.541L276.772 312.896L275.987 318.137Z" fill="#1470FA"/>
<path d="M305.468 236.944C303.138 206.492 302.151 175.501 297.931 168.698L271.725 168.36C271.725 168.36 282.148 219 285.811 239.307C289.617 260.407 299.864 315.267 299.864 315.267L312.464 315.419C312.464 315.419 311.435 260.5 305.468 236.944Z" fill="#263238"/>
<path d="M313.065 317.006L302 316.863C301.303 316.828 300.615 317.034 300.051 317.445C296.844 319.977 298.312 320.053 294.674 320.703C290.311 321.488 292.463 325.877 295.679 325.927C300.996 326.012 300.557 325.817 305.089 325.885L310.018 325.927L310.668 324.484L311.512 325.927H312.812C312.961 325.927 313.108 325.895 313.243 325.835C313.379 325.774 313.501 325.685 313.6 325.575C313.699 325.464 313.775 325.334 313.821 325.193C313.867 325.051 313.882 324.902 313.867 324.754L313.065 317.006Z" fill="#263238"/>
<path d="M313.9 318.137C313.698 318.137 299.324 317.682 299.324 317.682L297.932 312.508L313.858 312.862L313.9 318.137Z" fill="#1470FA"/>
<path d="M272.872 104.85C272.872 104.85 269.758 110.395 273.336 114.894C270.5 114.894 268.643 117.966 268.643 117.966C268.643 117.966 264.871 110.37 270.45 105.306C270.838 104.732 272.872 104.85 272.872 104.85Z" fill="#1470FA"/>
<path d="M299.054 171.011C284.225 171.627 267.219 171.813 256.584 171.011C256.526 171.009 256.469 170.993 256.418 170.966C256.367 170.938 256.323 170.899 256.289 170.851C255.591 169.669 255.271 168.303 255.369 166.935C255.378 166.834 255.424 166.74 255.5 166.673C255.575 166.606 255.673 166.569 255.774 166.572C269.81 166.952 283.761 166.935 298.43 166.572C298.51 166.57 298.589 166.593 298.657 166.636C298.725 166.68 298.778 166.743 298.81 166.817C299.3 168.032 299.513 169.341 299.434 170.648C299.428 170.745 299.385 170.837 299.315 170.904C299.245 170.971 299.152 171.009 299.054 171.011Z" fill="#263238"/>
<path opacity="0.2" d="M299.054 171.011C284.225 171.627 267.219 171.813 256.584 171.011C256.526 171.009 256.469 170.993 256.418 170.966C256.367 170.938 256.323 170.899 256.289 170.851C255.591 169.669 255.271 168.303 255.369 166.935C255.378 166.834 255.424 166.74 255.5 166.673C255.575 166.606 255.673 166.569 255.774 166.572C269.81 166.952 283.761 166.935 298.43 166.572C298.51 166.57 298.589 166.593 298.657 166.636C298.725 166.68 298.778 166.743 298.81 166.817C299.3 168.032 299.513 169.341 299.434 170.648C299.428 170.745 299.385 170.837 299.315 170.904C299.245 170.971 299.152 171.009 299.054 171.011Z" fill="black"/>
<path d="M270.079 166.336C269.903 168.201 270.054 170.084 270.526 171.897C273.742 172.395 280.342 172.024 280.342 172.024C280.437 170.154 280.37 168.279 280.139 166.42C275.075 166.217 270.079 166.336 270.079 166.336Z" fill="white"/>
<path d="M299.73 115.341L300.211 115.771L300.591 116.126L301.308 116.818C301.772 117.274 302.194 117.729 302.625 118.194C303.469 119.114 304.27 120.067 305.03 121.029C306.548 122.935 307.956 124.924 309.25 126.988C311.77 131.065 313.898 135.372 315.605 139.851C315.833 140.45 316.01 140.813 316.331 141.834C316.585 142.661 316.766 143.508 316.871 144.366C317.027 145.868 317.007 147.384 316.812 148.881C316.449 151.462 315.769 153.988 314.787 156.401C313.888 158.642 312.833 160.816 311.63 162.909C310.451 164.965 309.135 166.939 307.689 168.817C307.259 169.368 306.647 169.749 305.963 169.892C305.279 170.035 304.566 169.93 303.951 169.597C303.337 169.264 302.86 168.724 302.607 168.073C302.353 167.421 302.338 166.701 302.566 166.04L302.616 165.896C304.08 161.934 305.273 157.876 306.186 153.751C306.6 151.909 306.815 150.027 306.828 148.139C306.83 147.407 306.739 146.678 306.558 145.97C306.351 145.328 306.067 144.713 305.714 144.138C303.853 140.407 301.741 136.806 299.392 133.36C298.236 131.672 297.004 129.984 295.738 128.448C295.105 127.655 294.446 126.904 293.796 126.161L292.817 125.089L292.345 124.591L292.125 124.363L291.982 124.228C290.799 123.2 290.073 121.743 289.964 120.179C289.854 118.616 290.371 117.072 291.399 115.889C292.428 114.706 293.884 113.981 295.448 113.871C297.012 113.762 298.555 114.279 299.738 115.307L299.73 115.341Z" fill="#FF8B7B"/>
<path d="M292.454 108.032C299.029 109.171 305.579 117.003 309.486 124.279C306.791 128.826 302.755 132.429 297.932 134.592C297.932 134.592 290.218 127.081 287.137 121.578C284.057 116.075 286.268 106.96 292.454 108.032Z" fill="#1470FA"/>
<path d="M309.257 122.616C309.855 123.32 310.321 124.126 310.633 124.996C308.945 127.528 304.944 134.221 297.627 135.529C296.926 135.12 296.396 134.473 296.133 133.706C296.133 133.706 304.581 129.688 309.257 122.616Z" fill="#263238"/>
<path d="M287.694 107.441C286.335 106.858 286.85 106.09 286.85 106.09C286.85 106.09 293.104 106.31 297.383 107.669C298.016 108.42 297.273 109.357 297.273 109.357C297.273 109.357 291.728 109.171 287.694 107.441Z" fill="#263238"/>
<path opacity="0.2" d="M286.056 105.922C286.056 105.922 284.638 110.868 278.156 114.902C280.992 114.902 282.891 120.076 282.891 120.076C282.891 120.076 288.799 113.138 287.432 106.293C287.035 105.685 286.056 105.922 286.056 105.922Z" fill="black"/>
<path d="M285.87 105.027C285.87 105.027 284.182 110.378 278.156 114.902C280.992 114.902 282.959 117.966 282.959 117.966C282.959 117.966 288.765 113.138 287.432 106.293C286.99 105.782 286.462 105.354 285.87 105.027Z" fill="#1470FA"/>
<path d="M291.946 125.342C291.558 132.634 286.942 134.373 286.292 134.373C285.642 134.373 281.228 132.634 281.616 125.342L286.891 123.266L291.946 125.342Z" fill="white"/>
<path d="M303.308 165.458L298.109 169.931L305.005 174.413C305.005 174.413 309.225 169.788 307.132 167.154L303.308 165.458Z" fill="#FF8B7B"/>
<path d="M297.527 177.028L300.202 178.184C300.719 178.409 301.298 178.443 301.838 178.281C302.377 178.119 302.841 177.771 303.148 177.298L305.005 174.412L298.109 169.93L296.312 173.855C296.18 174.142 296.107 174.454 296.097 174.77C296.087 175.086 296.14 175.401 296.253 175.697C296.366 175.992 296.537 176.262 296.756 176.491C296.975 176.719 297.237 176.902 297.527 177.028Z" fill="#FF8B7B"/>
<path d="M268.139 75.1749C263.505 75.8079 265.058 77.2765 275.389 78.5931C285.719 79.9098 288.31 78.8717 288.31 78.8717C288.31 78.8717 276.444 75.1496 268.139 75.1749Z" fill="#263238"/>
<path d="M291.509 80.8803C291.509 80.8803 282.436 77.192 268.138 75.1749C267.961 73.0733 269.691 70.8452 269.691 70.8452C269.691 70.8452 266.501 69.25 267.488 66.2032C268.476 63.1563 273.042 63.553 278.368 61.1392C280.317 63.2829 285.677 66.7686 289.34 67.216C290.243 69.0812 292.606 73.7485 296.438 75.5462C296.379 77.5803 292.572 78.0782 292.572 78.0782C292.589 78.5925 292.504 79.105 292.322 79.586C292.139 80.0671 291.863 80.507 291.509 80.8803Z" fill="#1470FA"/>
<path opacity="0.3" d="M292.563 78.078C289.246 75.0649 277.464 69.562 269.691 70.8449C269.691 70.8449 267.961 73.0815 268.138 75.1746C282.435 77.1918 291.508 80.8801 291.508 80.8801C291.861 80.5061 292.135 80.0658 292.317 79.5848C292.498 79.1038 292.581 78.5916 292.563 78.078Z" fill="black"/>
<path d="M279.736 67.3339C278.714 72.5329 275.17 73.4697 274.672 73.4191C274.174 73.3685 271.135 71.8324 272.14 66.6671L276.216 65.5361L279.736 67.3339Z" fill="white"/>
<path d="M212.477 152.528C211.961 152.528 211.464 152.339 211.078 151.996C210.693 151.654 210.445 151.183 210.384 150.671L204.357 101.559C204.289 100.999 204.446 100.435 204.793 99.9915C205.141 99.5475 205.65 99.2597 206.21 99.1914C206.77 99.1232 207.333 99.28 207.777 99.6274C208.221 99.9748 208.509 100.484 208.577 101.044L214.57 150.182C214.605 150.457 214.586 150.736 214.513 151.004C214.44 151.271 214.315 151.522 214.144 151.74C213.974 151.959 213.762 152.142 213.521 152.279C213.28 152.416 213.014 152.503 212.738 152.536L212.477 152.528Z" fill="#263238"/>
<path d="M211.135 130.431C210.621 128.541 211.591 128.262 210.654 125.578C210.156 124.152 211.794 123.046 211.996 124.194C212.756 128.372 218.301 130.71 216.377 133.351C214.452 135.993 211.642 132.322 211.135 130.431Z" fill="#FF8B7B"/>
<path d="M248.75 59.6925C250.406 33.3102 230.36 10.5814 203.978 8.92616C177.596 7.27095 154.867 27.3162 153.212 53.6985C151.557 80.0807 171.602 102.81 197.984 104.465C224.366 106.12 247.095 86.0748 248.75 59.6925Z" fill="#1470FA"/>
<path d="M237.404 69.5961C244.534 49.4732 234.001 27.3805 213.878 20.2507C193.755 13.1208 171.663 23.6537 164.533 43.7767C157.403 63.8996 167.936 85.9923 188.059 93.1221C208.182 100.252 230.274 89.719 237.404 69.5961Z" fill="white"/>
<path d="M226.081 50.1586C222.908 45.8711 216.797 50.1586 214.966 54.6656C214.468 55.7837 214.141 56.97 213.995 58.1851L211.978 44.4194L210.383 31.3712C210.215 30.2515 209.616 29.2416 208.715 28.5563C207.814 27.8711 206.681 27.5646 205.557 27.702C204.433 27.8395 203.407 28.4101 202.697 29.2923C201.988 30.1746 201.65 31.299 201.757 32.4262L201.361 29.1768C201.291 28.611 201.11 28.0644 200.829 27.5684C200.548 27.0724 200.172 26.6366 199.723 26.2859C199.273 25.9351 198.759 25.6764 198.209 25.5244C197.66 25.3724 197.086 25.33 196.52 25.3999C195.954 25.4697 195.408 25.6503 194.912 25.9313C194.416 26.2124 193.98 26.5884 193.629 27.0378C193.279 27.4873 193.02 28.0014 192.868 28.5509C192.716 29.1004 192.673 29.6744 192.743 30.2402L193.3 34.7641C193.225 34.1518 193.02 33.5626 192.699 33.0357C192.378 32.5088 191.948 32.0563 191.439 31.7082C190.93 31.3601 190.352 31.1244 189.744 31.0168C189.137 30.9092 188.514 30.9322 187.916 31.0842C186.892 31.3469 185.998 31.973 185.402 32.8457C184.806 33.7184 184.547 34.7782 184.675 35.8275L185.367 41.4739C185.292 40.861 185.088 40.271 184.768 39.7434C184.447 39.2158 184.018 38.7627 183.508 38.4144C182.998 38.0661 182.42 37.8305 181.812 37.7235C181.204 37.6166 180.58 37.6406 179.982 37.794C178.959 38.055 178.067 38.6798 177.472 39.5514C176.877 40.4229 176.62 41.4815 176.749 42.5289L178.134 53.8131L179.121 61.9071L180.429 72.5331C181.358 80.1291 184.32 84.4166 188.717 86.3493C195.469 89.3118 207.834 89.3455 213.388 84.8386C218.249 80.8971 221.372 71.4021 222.123 65.5194C222.874 59.6367 227.373 51.8888 226.081 50.1586Z" fill="#263238"/>
<path d="M233.376 23.3649L225.496 17.2061L168.57 90.0425L176.45 96.2013L233.376 23.3649Z" fill="#1470FA"/>
<path d="M67.8906 126.617V111.256H79.0061V113.046H69.9247V117.755H78.4237V119.561H69.9247V124.786H79.3353V126.6L67.8906 126.617Z" fill="#263238"/>
<path d="M81.9102 126.617V115.485H83.5982V117.173C83.8826 116.573 84.2911 116.041 84.7966 115.611C85.1494 115.362 85.5714 115.229 86.0036 115.231C86.6956 115.251 87.3683 115.464 87.9448 115.848L87.2949 117.595C86.8789 117.336 86.4004 117.196 85.9107 117.19C85.5105 117.183 85.1202 117.314 84.8051 117.561C84.4661 117.821 84.218 118.181 84.0961 118.591C83.8837 119.305 83.7785 120.048 83.7838 120.793V126.617H81.9102Z" fill="#263238"/>
<path d="M89.0586 126.617V115.485H90.7466V117.173C91.0416 116.556 91.468 116.012 91.9957 115.578C92.349 115.329 92.7707 115.196 93.2026 115.198C93.8947 115.217 94.5674 115.43 95.1438 115.814L94.494 117.561C94.078 117.303 93.5994 117.162 93.1098 117.156C92.7096 117.149 92.3193 117.28 92.0042 117.527C91.6652 117.787 91.417 118.147 91.2952 118.557C91.0828 119.272 90.9776 120.014 90.9829 120.76V126.583L89.0586 126.617Z" fill="#263238"/>
<path d="M95.5235 121.055C95.5235 118.996 96.0862 117.468 97.2115 116.472C98.1817 115.639 99.4273 115.197 100.706 115.232C101.403 115.207 102.097 115.329 102.744 115.589C103.391 115.849 103.976 116.242 104.461 116.742C104.967 117.304 105.356 117.96 105.606 118.673C105.857 119.386 105.964 120.141 105.922 120.895C105.974 122.056 105.751 123.212 105.272 124.271C104.853 125.08 104.2 125.745 103.398 126.178C102.575 126.636 101.647 126.871 100.706 126.862C100.007 126.89 99.3109 126.772 98.6612 126.515C98.0114 126.257 97.4227 125.867 96.933 125.368C95.916 124.171 95.4099 122.622 95.5235 121.055ZM97.4647 121.055C97.3789 122.199 97.7085 123.334 98.3931 124.254C98.6854 124.588 99.0456 124.855 99.4495 125.038C99.8534 125.221 100.292 125.316 100.735 125.316C101.179 125.316 101.617 125.221 102.021 125.038C102.425 124.855 102.785 124.588 103.077 124.254C103.772 123.313 104.104 122.154 104.014 120.988C104.094 119.867 103.761 118.756 103.077 117.865C102.784 117.533 102.424 117.267 102.02 117.084C101.616 116.902 101.178 116.808 100.735 116.808C100.292 116.808 99.8542 116.902 99.4504 117.084C99.0466 117.267 98.6862 117.533 98.3931 117.865C97.7105 118.782 97.381 119.915 97.4647 121.055Z" fill="#263238"/>
<path d="M108.141 126.617V115.485H109.829V117.173C110.11 116.571 110.519 116.039 111.027 115.611C111.38 115.362 111.802 115.229 112.234 115.231C112.926 115.251 113.599 115.464 114.175 115.848L113.525 117.595C113.109 117.337 112.631 117.197 112.141 117.19C111.738 117.183 111.345 117.314 111.027 117.561C110.691 117.822 110.446 118.182 110.327 118.591C110.11 119.305 110.005 120.047 110.014 120.793V126.617H108.141Z" fill="#263238"/>
<path d="M74.9046 145.7V144.062C74.5284 144.657 74.0053 145.144 73.3857 145.476C72.7662 145.809 72.0713 145.976 71.3682 145.961C70.7377 145.966 70.1134 145.837 69.5367 145.582C69.0361 145.384 68.5964 145.058 68.2623 144.636C67.9767 144.213 67.7787 143.736 67.6799 143.235C67.5905 142.652 67.5538 142.061 67.5702 141.471V134.567H69.4523V140.737C69.4311 141.403 69.4707 142.07 69.5705 142.729C69.6722 143.197 69.9388 143.614 70.3216 143.902C70.7398 144.191 71.2397 144.339 71.748 144.324C72.3086 144.326 72.8594 144.177 73.3432 143.894C73.8159 143.623 74.1866 143.205 74.3982 142.704C74.6313 142.005 74.7343 141.27 74.702 140.534V134.567H76.5926V145.7H74.9046Z" fill="#263238"/>
<path d="M79.5469 145.699V134.567H81.2349V136.145C81.615 135.558 82.1421 135.08 82.7638 134.758C83.3856 134.437 84.0805 134.284 84.7797 134.314C85.4144 134.304 86.0441 134.428 86.628 134.677C87.1282 134.871 87.566 135.197 87.894 135.622C88.1828 136.045 88.3837 136.521 88.4848 137.023C88.5692 137.63 88.6031 138.242 88.5861 138.854V145.699H86.704V138.947C86.7266 138.376 86.6495 137.804 86.4761 137.259C86.3285 136.876 86.0546 136.554 85.6996 136.348C85.3011 136.114 84.8448 135.997 84.383 136.01C83.6181 135.997 82.8756 136.268 82.2983 136.77C81.716 137.285 81.4543 138.255 81.4543 139.682V145.758L79.5469 145.699Z" fill="#263238"/>
<path d="M98.7475 144.324C98.1502 144.857 97.4648 145.283 96.7219 145.582C96.0585 145.832 95.3547 145.958 94.6457 145.953C93.6257 146.019 92.6184 145.697 91.8267 145.05C91.5046 144.765 91.2491 144.412 91.0785 144.016C90.9078 143.621 90.8262 143.193 90.8392 142.763C90.8343 142.256 90.9551 141.755 91.1907 141.306C91.4264 140.857 91.7695 140.473 92.1897 140.189C92.6042 139.905 93.0636 139.694 93.5485 139.564C94.1054 139.439 94.669 139.346 95.2365 139.286C96.3806 139.181 97.5114 138.964 98.6125 138.636C98.6125 138.374 98.6125 138.214 98.6125 138.138C98.6436 137.845 98.6124 137.55 98.5207 137.27C98.429 136.991 98.2791 136.734 98.0808 136.517C97.467 136.045 96.7005 135.817 95.9286 135.876C95.241 135.826 94.5548 135.988 93.9621 136.34C93.4631 136.777 93.1318 137.374 93.0252 138.028L91.1853 137.775C91.3099 137.081 91.5993 136.426 92.0293 135.867C92.4717 135.338 93.058 134.948 93.7173 134.745C94.532 134.467 95.3887 134.333 96.2493 134.348C97.0369 134.321 97.8231 134.435 98.5703 134.686C99.0724 134.848 99.5234 135.139 99.8785 135.53C100.176 135.904 100.379 136.344 100.469 136.813C100.546 137.389 100.577 137.97 100.562 138.551V141.083C100.534 142.21 100.573 143.337 100.68 144.459C100.767 144.927 100.93 145.377 101.161 145.793H99.1864C98.946 145.336 98.797 144.838 98.7475 144.324ZM98.5872 140.104C97.5907 140.457 96.5571 140.695 95.5066 140.813C94.9307 140.872 94.364 140.999 93.8186 141.193C93.5145 141.319 93.2555 141.533 93.0759 141.809C92.901 142.074 92.8099 142.386 92.8142 142.704C92.8096 142.942 92.8579 143.179 92.9557 143.396C93.0535 143.614 93.1983 143.807 93.3797 143.961C93.8596 144.335 94.4616 144.515 95.0677 144.468C95.7457 144.48 96.4151 144.314 97.0089 143.987C97.5515 143.691 97.9882 143.234 98.258 142.678C98.4916 142.08 98.5952 141.438 98.5619 140.796L98.5872 140.104Z" fill="#263238"/>
<path d="M110.725 145.7V144.062C110.349 144.657 109.825 145.144 109.206 145.476C108.586 145.809 107.891 145.976 107.188 145.961C106.555 145.965 105.928 145.836 105.348 145.582C104.851 145.382 104.415 145.056 104.082 144.636C103.79 144.217 103.591 143.739 103.5 143.235C103.407 142.652 103.367 142.062 103.382 141.471V134.567H105.272V140.737C105.251 141.403 105.291 142.07 105.391 142.729C105.492 143.197 105.759 143.614 106.142 143.902C106.56 144.191 107.06 144.339 107.568 144.324C108.129 144.326 108.68 144.177 109.163 143.894C109.636 143.623 110.007 143.205 110.218 142.704C110.451 142.005 110.554 141.27 110.522 140.534V134.567H112.413V145.7H110.725Z" fill="#263238"/>
<path d="M119.485 144.012L119.763 145.7C119.296 145.808 118.817 145.864 118.337 145.869C117.787 145.897 117.238 145.787 116.742 145.548C116.392 145.359 116.111 145.063 115.94 144.704C115.742 143.982 115.665 143.232 115.712 142.484V136.078H114.328V134.568H115.712V131.808L117.586 130.677V134.568H119.485V136.036H117.586V142.586C117.563 142.935 117.597 143.285 117.687 143.624C117.754 143.778 117.87 143.905 118.016 143.987C118.213 144.092 118.435 144.142 118.658 144.13C118.936 144.111 119.212 144.071 119.485 144.012Z" fill="#263238"/>
<path d="M121.334 145.699V130.33H123.225V135.833C123.63 135.344 124.14 134.953 124.717 134.688C125.294 134.424 125.924 134.293 126.558 134.305C127.305 134.285 128.046 134.454 128.711 134.795C129.283 135.086 129.742 135.558 130.019 136.137C130.321 136.945 130.454 137.807 130.407 138.669V145.725H128.525V138.669C128.588 137.929 128.368 137.193 127.909 136.609C127.68 136.387 127.407 136.215 127.107 136.105C126.808 135.994 126.489 135.948 126.17 135.968C125.615 135.968 125.07 136.116 124.592 136.398C124.122 136.666 123.754 137.081 123.545 137.58C123.306 138.236 123.197 138.933 123.225 139.631V145.725L121.334 145.699Z" fill="#263238"/>
<path d="M132.566 140.129C132.566 138.07 133.128 136.545 134.254 135.555C135.227 134.721 136.475 134.279 137.756 134.314C138.458 134.288 139.157 134.41 139.808 134.672C140.46 134.934 141.049 135.329 141.538 135.833C142.044 136.396 142.433 137.053 142.684 137.767C142.934 138.482 143.041 139.238 142.998 139.994C143.049 141.154 142.83 142.31 142.356 143.37C141.937 144.184 141.281 144.853 140.474 145.286C139.654 145.742 138.729 145.978 137.79 145.97C137.09 145.999 136.391 145.88 135.739 145.621C135.088 145.363 134.498 144.969 134.009 144.467C132.973 143.269 132.454 141.709 132.566 140.129ZM134.507 140.129C134.421 141.275 134.751 142.413 135.435 143.336C135.724 143.677 136.085 143.95 136.493 144.134C136.9 144.318 137.343 144.409 137.79 144.4C138.235 144.408 138.677 144.316 139.081 144.131C139.486 143.945 139.844 143.671 140.128 143.328C140.817 142.388 141.147 141.232 141.056 140.07C141.137 138.947 140.804 137.833 140.12 136.939C139.827 136.605 139.467 136.338 139.063 136.155C138.659 135.972 138.221 135.877 137.777 135.877C137.334 135.877 136.896 135.972 136.492 136.155C136.088 136.338 135.728 136.605 135.435 136.939C134.749 137.854 134.419 138.988 134.507 140.129Z" fill="#263238"/>
<path d="M145.168 145.699V134.567H146.856V136.255C147.135 135.652 147.544 135.119 148.054 134.693C148.407 134.444 148.829 134.311 149.261 134.314C149.953 134.33 150.625 134.54 151.203 134.921L150.553 136.677C150.139 136.413 149.659 136.269 149.169 136.263C148.769 136.259 148.379 136.39 148.063 136.635C147.726 136.896 147.478 137.256 147.354 137.664C147.142 138.379 147.037 139.121 147.042 139.867V145.699H145.168Z" fill="#263238"/>
<path d="M152.367 132.499V130.33H154.258V132.499H152.367ZM152.367 145.699V134.567H154.258V145.699H152.367Z" fill="#263238"/>
<path d="M156.141 145.7V144.172L163.23 136.036C162.386 136.036 161.711 136.095 161.103 136.095H156.563V134.567H165.661V135.833L159.635 142.898L158.47 144.189C159.314 144.121 160.107 144.088 160.85 144.088H165.999V145.717L156.141 145.7Z" fill="#263238"/>
<path d="M175.485 142.113L177.434 142.358C177.187 143.406 176.592 144.34 175.746 145.008C174.819 145.666 173.7 145.998 172.564 145.953C171.849 145.99 171.133 145.874 170.465 145.614C169.797 145.353 169.193 144.954 168.691 144.442C167.675 143.28 167.159 141.763 167.256 140.222C167.158 138.635 167.678 137.072 168.707 135.859C169.184 135.346 169.765 134.942 170.412 134.674C171.058 134.406 171.755 134.28 172.455 134.306C173.137 134.283 173.817 134.406 174.447 134.669C175.078 134.931 175.644 135.325 176.109 135.825C177.111 137.018 177.615 138.55 177.519 140.104C177.519 140.214 177.519 140.383 177.519 140.611H169.214C169.217 141.638 169.585 142.631 170.252 143.413C170.55 143.73 170.911 143.981 171.313 144.15C171.714 144.319 172.146 144.401 172.581 144.392C173.216 144.408 173.839 144.216 174.354 143.843C174.89 143.388 175.283 142.787 175.485 142.113ZM169.29 139.066H175.502C175.481 138.308 175.234 137.573 174.793 136.956C174.514 136.606 174.157 136.326 173.752 136.137C173.346 135.948 172.902 135.856 172.455 135.867C172.052 135.854 171.651 135.921 171.276 136.066C170.9 136.211 170.557 136.431 170.269 136.711C169.652 137.342 169.302 138.185 169.29 139.066Z" fill="#263238"/>
<path d="M187.022 145.7V144.273C186.704 144.81 186.247 145.25 185.698 145.547C185.15 145.844 184.531 145.988 183.908 145.961C183.037 145.965 182.185 145.71 181.46 145.227C180.703 144.719 180.103 144.008 179.73 143.176C179.31 142.225 179.102 141.194 179.122 140.155C179.109 139.118 179.298 138.089 179.68 137.125C180.008 136.271 180.599 135.544 181.368 135.048C182.105 134.567 182.968 134.315 183.849 134.323C184.474 134.312 185.092 134.457 185.647 134.745C186.148 135.015 186.583 135.392 186.921 135.85V130.339H188.803V145.708L187.022 145.7ZM181.064 140.146C180.975 141.282 181.292 142.413 181.958 143.336C182.21 143.662 182.532 143.927 182.9 144.111C183.268 144.296 183.673 144.394 184.085 144.4C184.489 144.402 184.889 144.312 185.253 144.136C185.617 143.961 185.937 143.705 186.187 143.387C186.826 142.49 187.125 141.395 187.031 140.298C187.141 139.109 186.844 137.919 186.187 136.922C185.933 136.588 185.605 136.317 185.229 136.131C184.852 135.945 184.438 135.849 184.018 135.85C183.611 135.846 183.21 135.937 182.845 136.116C182.48 136.295 182.162 136.556 181.916 136.88C181.267 137.839 180.966 138.992 181.064 140.146Z" fill="#263238"/>
</svg>
