<svg width="36" height="37" viewBox="0 0 36 37" fill="none" xmlns="http://www.w3.org/2000/svg">
<path opacity="0.4" d="M26.2955 12.155C26.1905 12.14 26.0855 12.14 25.9805 12.155C23.6555 12.08 21.8105 10.175 21.8105 7.835C21.8105 5.45 23.7455 3.5 26.1455 3.5C28.5305 3.5 30.4805 5.435 30.4805 7.835C30.4655 10.175 28.6205 12.08 26.2955 12.155Z" fill="#292D32"/>
<path opacity="0.4" d="M31.1854 22.5501C29.5054 23.6751 27.1504 24.0951 24.9754 23.8101C25.5454 22.5801 25.8454 21.2151 25.8604 19.7751C25.8604 18.2751 25.5304 16.8501 24.9004 15.6051C27.1204 15.3051 29.4754 15.7251 31.1704 16.8501C33.5404 18.4101 33.5404 20.9751 31.1854 22.5501Z" fill="#292D32"/>
<path opacity="0.4" d="M9.65961 12.155C9.76461 12.14 9.86961 12.14 9.97461 12.155C12.2996 12.08 14.1446 10.175 14.1446 7.835C14.1446 5.45 12.2096 3.5 9.80961 3.5C7.42461 3.5 5.47461 5.435 5.47461 7.835C5.48961 10.175 7.33461 12.08 9.65961 12.155Z" fill="#292D32"/>
<path opacity="0.4" d="M9.82469 19.7749C9.82469 21.2299 10.1397 22.6099 10.7097 23.8549C8.59469 24.0799 6.38969 23.6299 4.76969 22.5649C2.39969 20.9899 2.39969 18.4249 4.76969 16.8499C6.37469 15.7699 8.63969 15.3349 10.7697 15.5749C10.1547 16.8349 9.82469 18.2599 9.82469 19.7749Z" fill="#292D32"/>
<path d="M18.1792 24.305C18.0592 24.29 17.9242 24.29 17.7892 24.305C15.0292 24.215 12.8242 21.95 12.8242 19.16C12.8242 16.31 15.1192 14 17.9842 14C20.8342 14 23.1442 16.31 23.1442 19.16C23.1442 21.95 20.9542 24.215 18.1792 24.305Z" fill="#292D32"/>
<path d="M13.3042 27.41C11.0392 28.925 11.0392 31.415 13.3042 32.915C15.8842 34.64 20.1142 34.64 22.6942 32.915C24.9592 31.4 24.9592 28.91 22.6942 27.41C20.1292 25.685 15.8992 25.685 13.3042 27.41Z" fill="#292D32"/>
</svg>
