<svg width="36" height="36" viewBox="0 0 36 36" fill="none" xmlns="http://www.w3.org/2000/svg">
<path opacity="0.4" d="M16.1253 3.67498C17.1603 2.78998 18.8553 2.78998 19.9053 3.67498L22.2753 5.71498C22.7253 6.10498 23.5653 6.41998 24.1653 6.41998H26.7153C28.3053 6.41998 29.6103 7.72498 29.6103 9.31498V11.865C29.6103 12.45 29.9253 13.305 30.3153 13.755L32.3553 16.125C33.2403 17.16 33.2403 18.855 32.3553 19.905L30.3153 22.275C29.9253 22.725 29.6103 23.565 29.6103 24.165V26.715C29.6103 28.305 28.3053 29.61 26.7153 29.61H24.1653C23.5803 29.61 22.7253 29.925 22.2753 30.315L19.9053 32.355C18.8703 33.24 17.1753 33.24 16.1253 32.355L13.7553 30.315C13.3053 29.925 12.4653 29.61 11.8653 29.61H9.27031C7.68031 29.61 6.37531 28.305 6.37531 26.715V24.15C6.37531 23.565 6.06031 22.725 5.68531 22.275L3.66031 19.89C2.79031 18.855 2.79031 17.175 3.66031 16.14L5.68531 13.755C6.06031 13.305 6.37531 12.465 6.37531 11.88V9.29998C6.37531 7.70998 7.68031 6.40498 9.27031 6.40498H11.8653C12.4503 6.40498 13.3053 6.08998 13.7553 5.69998L16.1253 3.67498Z" fill="#4CAF50"/>
<path d="M16.1848 22.7549C15.8848 22.7549 15.5998 22.6349 15.3898 22.4249L11.7598 18.7949C11.3248 18.3599 11.3248 17.6399 11.7598 17.2049C12.1948 16.7699 12.9148 16.7699 13.3498 17.2049L16.1848 20.0399L22.6348 13.5899C23.0698 13.1549 23.7898 13.1549 24.2248 13.5899C24.6598 14.0249 24.6598 14.7449 24.2248 15.1799L16.9798 22.4249C16.7698 22.6349 16.4848 22.7549 16.1848 22.7549Z" fill="#4CAF50"/>
</svg>
