<svg width="36" height="36" viewBox="0 0 36 36" fill="none" xmlns="http://www.w3.org/2000/svg">
<path opacity="0.4" d="M31.6203 12.8701V23.13C31.6203 24.81 30.7203 26.3701 29.2653 27.2251L20.3553 32.3701C18.9003 33.2101 17.1002 33.2101 15.6302 32.3701L6.72025 27.2251C5.26525 26.3851 4.36523 24.825 4.36523 23.13V12.8701C4.36523 11.1901 5.26525 9.62999 6.72025 8.77499L15.6302 3.63C17.0852 2.79 18.8853 2.79 20.3553 3.63L29.2653 8.77499C30.7203 9.62999 31.6203 11.1751 31.6203 12.8701Z" fill="#212121"/>
<path d="M18 20.625C17.385 20.625 16.875 20.115 16.875 19.5V11.625C16.875 11.01 17.385 10.5 18 10.5C18.615 10.5 19.125 11.01 19.125 11.625V19.5C19.125 20.115 18.615 20.625 18 20.625Z" fill="#212121"/>
<path d="M18 25.8748C17.805 25.8748 17.61 25.8298 17.43 25.7548C17.235 25.6798 17.085 25.5748 16.935 25.4398C16.8 25.2898 16.695 25.1248 16.605 24.9448C16.53 24.7648 16.5 24.5698 16.5 24.3748C16.5 23.9848 16.65 23.5948 16.935 23.3098C17.085 23.1748 17.235 23.0698 17.43 22.9948C17.985 22.7548 18.645 22.8898 19.065 23.3098C19.2 23.4598 19.305 23.6098 19.38 23.8048C19.455 23.9848 19.5 24.1798 19.5 24.3748C19.5 24.5698 19.455 24.7648 19.38 24.9448C19.305 25.1248 19.2 25.2898 19.065 25.4398C18.78 25.7248 18.405 25.8748 18 25.8748Z" fill="#212121"/>
</svg>
