<svg width="1280" height="64" viewBox="0 0 1280 64" fill="none" xmlns="http://www.w3.org/2000/svg">
<path fill-rule="evenodd" clip-rule="evenodd" d="M0 64L13.8667 59.2593C26.6667 54.5185 53.3333 45.037 80 34.3704C106.667 23.7037 133.333 11.8519 160 15.4074C186.667 18.963 213.333 37.9259 240 46.2222C266.667 54.5185 293.333 52.1481 320 48.5926C346.667 45.037 373.333 40.2963 400 40.2963C426.667 40.2963 453.333 45.037 480 40.2963C506.667 35.5556 533.333 21.3333 560 18.963C586.667 16.5926 613.333 26.0741 640 35.5556C666.667 45.037 693.333 54.5185 720 53.3333C746.667 52.1481 773.333 40.2963 800 36.7407C826.667 33.1852 853.333 37.9259 880 41.4815C906.667 45.037 933.333 47.4074 960 43.8519C986.667 40.2963 1013.33 30.8148 1040 22.5185C1066.67 14.2222 1093.33 7.11111 1120 4.74074C1146.67 2.37037 1173.33 4.74074 1200 15.4074C1226.67 26.0741 1253.33 45.037 1267.2 54.5185L1280 64V0H1267.2C1253.33 0 1226.67 0 1200 0C1173.33 0 1146.67 0 1120 0C1093.33 0 1066.67 0 1040 0C1013.33 0 986.667 0 960 0C933.333 0 906.667 0 880 0C853.333 0 826.667 0 800 0C773.333 0 746.667 0 720 0C693.333 0 666.667 0 640 0C613.333 0 586.667 0 560 0C533.333 0 506.667 0 480 0C453.333 0 426.667 0 400 0C373.333 0 346.667 0 320 0C293.333 0 266.667 0 240 0C213.333 0 186.667 0 160 0C133.333 0 106.667 0 80 0C53.3333 0 26.6667 0 13.8667 0H0V64Z" fill="#1470FA"/>
</svg>
